<svg xmlns="http://www.w3.org/2000/svg" width="24" height="24" viewBox="2 2 20 20">
  <path
    fillRule="evenodd"
    d="M20 8.04H8a1 1 0 110-2h12a1 1 0 110 2zm0 5H8a1 1 0 110-2h12a1 1 0 110 2zm0 5H8a1 1 0 110-2h12a1 1 0 110 2zM3.318 7.718l-.036-.036a.964.964 0 010-1.363l.036-.037a.964.964 0 011.363 0l.036.037a.964.964 0 010 1.363l-.036.036a.963.963 0 01-1.363 0zm0 5l-.036-.036a.964.964 0 010-1.363l.036-.037a.964.964 0 011.363 0l.036.037a.964.964 0 010 1.363l-.036.036a.963.963 0 01-1.363 0zm0 5.04l-.036-.036a.964.964 0 010-1.363l.036-.037a.964.964 0 011.363 0l.036.037a.964.964 0 010 1.363l-.036.036a.964.964 0 01-1.363 0z"
  />
</svg>