<svg xmlns="http://www.w3.org/2000/svg" width="24" height="24" viewBox="2 2 20 20">
  <path fill="#393A3D" fill-rule="evenodd" d="M19 3a2 2 0 0 1 2 2v4.5a1 1 0 0 1-1.993.117L19 9.5V5H5v14h4.5a1 1 0 0 1 .993.883L10.5 20a1 1 0 0 1-.883.993L9.5 21H5a2 2 0 0 1-2-2V5a2 2 0 0 1 2-2h14zm-8.252 6.711l.114.024 8.154 2.216a1 1 0 0 1 .206 1.848l-.106.048-2.262.882 3.675 3.674a1.5 1.5 0 0 1-2.121 2.121l-3.717-3.716-.87 2.3a1 1 0 0 1-.535.563l-.126.045a1 1 0 0 1-1.197-.578l-.039-.11-2.286-8.055a1 1 0 0 1 1.11-1.262z"/>
</svg>
