<svg xmlns="http://www.w3.org/2000/svg" width="24" height="24" viewBox="2 2 20 20">
  <path
    fillRule="evenodd"
    d="M13.445 22a.477.477 0 00.47-.365c.207-.78.286-1.627.377-2.421.403-.13.807-.3 1.185-.495l1.796 1.406a.662.662 0 00.339.117c.443 0 2.2-1.914 2.513-2.33a.435.435 0 00.117-.3.514.514 0 00-.13-.326c-.482-.585-.95-1.158-1.393-1.796.208-.378.364-.769.508-1.185l2.408-.365c.209-.039.365-.273.365-.469v-2.89a.475.475 0 00-.378-.469l-2.382-.365a7.184 7.184 0 00-.534-1.276c.442-.612.924-1.185 1.367-1.784a.492.492 0 00.013-.585c-.547-.769-1.458-1.576-2.148-2.214a.514.514 0 00-.326-.13.444.444 0 00-.313.117l-1.848 1.393a7.645 7.645 0 00-1.172-.482l-.365-2.395C13.888 2.169 13.68 2 13.445 2h-2.89a.477.477 0 00-.47.365c-.207.78-.286 1.627-.377 2.421-.403.13-.807.3-1.185.495L6.727 3.888a.58.58 0 00-.339-.13c-.443 0-2.2 1.9-2.513 2.33a.505.505 0 00-.117.3.48.48 0 00.13.313c.482.585.95 1.171 1.393 1.796a6.89 6.89 0 00-.508 1.198l-2.421.365c-.196.039-.352.273-.352.469v2.89c0 .222.156.43.378.469l2.382.352c.13.442.313.872.534 1.289-.442.612-.924 1.185-1.367 1.784a.507.507 0 00-.013.599c.547.755 1.458 1.562 2.148 2.187a.466.466 0 00.326.143.5.5 0 00.326-.117l1.835-1.393c.378.195.769.351 1.172.482l.365 2.395c.026.222.234.391.469.391h2.89zM12 15.333A3.34 3.34 0 018.667 12 3.34 3.34 0 0112 8.667 3.34 3.34 0 0115.333 12 3.34 3.34 0 0112 15.333z"
  />
</svg>