<svg width="903" height="272" viewBox="0 0 903 272" fill="none" xmlns="http://www.w3.org/2000/svg">
<rect width="903" height="272" rx="40" fill="#881280"/>
<rect width="903" height="272" rx="40" fill="#5DB0D7"/>
<path d="M188.425 82.3713C192.05 82.3713 195.528 83.7079 198.091 86.0871C200.655 88.4662 202.096 91.693 202.096 95.0577V183.862C202.096 187.227 200.655 190.454 198.091 192.833C195.528 195.212 192.05 196.549 188.425 196.549H92.7289C89.1031 196.549 85.6259 195.212 83.0621 192.833C80.4983 190.454 79.058 187.227 79.058 183.862V95.0577C79.058 91.693 80.4983 88.4662 83.0621 86.0871C85.6259 83.7079 89.1031 82.3713 92.7289 82.3713H188.425ZM188.425 95.0577H92.7289V183.862H188.425V95.0577ZM124.903 115.946L145.409 134.975C146.691 136.165 147.411 137.778 147.411 139.46C147.411 141.142 146.691 142.755 145.409 143.945L124.903 162.974C123.614 164.13 121.887 164.769 120.095 164.754C118.303 164.74 116.588 164.073 115.321 162.897C114.054 161.721 113.335 160.13 113.319 158.467C113.304 156.803 113.993 155.201 115.238 154.005L130.912 139.46L115.238 124.915C113.993 123.719 113.304 122.116 113.319 120.453C113.335 118.79 114.054 117.199 115.321 116.023C116.588 114.847 118.303 114.18 120.095 114.165C121.887 114.151 123.614 114.79 124.903 115.946V115.946Z" fill="white"/>
<path d="M261.56 131.74C260.533 130.787 259.03 129.907 257.05 129.1C255.07 128.22 253.017 127.78 250.89 127.78C248.47 127.78 246.38 128.257 244.62 129.21C242.933 130.163 241.54 131.483 240.44 133.17C239.34 134.783 238.533 136.763 238.02 139.11C237.507 141.383 237.25 143.84 237.25 146.48C237.25 152.42 238.643 157.003 241.43 160.23C244.217 163.457 247.847 165.07 252.32 165.07C254.593 165.07 256.5 164.96 258.04 164.74C259.653 164.52 260.827 164.3 261.56 164.08V131.74ZM261.56 97.31L270.69 95.77V170.57C268.71 171.157 266.18 171.743 263.1 172.33C260.02 172.917 256.427 173.21 252.32 173.21C248.653 173.21 245.317 172.587 242.31 171.34C239.303 170.093 236.737 168.333 234.61 166.06C232.483 163.713 230.833 160.89 229.66 157.59C228.487 154.29 227.9 150.587 227.9 146.48C227.9 142.52 228.377 138.927 229.33 135.7C230.357 132.4 231.823 129.577 233.73 127.23C235.637 124.883 237.91 123.05 240.55 121.73C243.263 120.41 246.343 119.75 249.79 119.75C252.503 119.75 254.887 120.08 256.94 120.74C258.993 121.4 260.533 122.097 261.56 122.83V97.31ZM306.99 119.75C313.883 119.75 319.2 121.913 322.94 126.24C326.68 130.493 328.55 136.983 328.55 145.71V148.9H292.03C292.397 154.18 294.12 158.213 297.2 161C300.353 163.713 304.753 165.07 310.4 165.07C313.627 165.07 316.377 164.813 318.65 164.3C320.923 163.787 322.647 163.237 323.82 162.65L325.03 170.35C323.93 170.937 321.95 171.56 319.09 172.22C316.23 172.88 313.003 173.21 309.41 173.21C305.01 173.21 301.123 172.55 297.75 171.23C294.45 169.837 291.7 167.967 289.5 165.62C287.3 163.273 285.65 160.487 284.55 157.26C283.45 153.96 282.9 150.403 282.9 146.59C282.9 142.043 283.597 138.083 284.99 134.71C286.383 131.337 288.217 128.55 290.49 126.35C292.763 124.15 295.33 122.5 298.19 121.4C301.05 120.3 303.983 119.75 306.99 119.75ZM319.31 141.53C319.31 137.203 318.173 133.793 315.9 131.3C313.627 128.733 310.62 127.45 306.88 127.45C304.753 127.45 302.81 127.853 301.05 128.66C299.363 129.467 297.897 130.53 296.65 131.85C295.403 133.17 294.413 134.673 293.68 136.36C292.947 138.047 292.47 139.77 292.25 141.53H319.31ZM385.2 120.96C383.88 125.727 382.377 130.42 380.69 135.04C379.003 139.587 377.28 144.06 375.52 148.46C373.76 152.787 371.963 156.93 370.13 160.89C368.297 164.85 366.537 168.553 364.85 172H356.6C353.153 165.107 349.67 157.26 346.15 148.46C342.63 139.66 339.513 130.493 336.8 120.96H346.7C347.58 124.187 348.57 127.597 349.67 131.19C350.843 134.783 352.053 138.377 353.3 141.97C354.547 145.563 355.793 149.047 357.04 152.42C358.36 155.72 359.643 158.69 360.89 161.33C362.137 158.69 363.42 155.72 364.74 152.42C366.133 149.047 367.49 145.563 368.81 141.97C370.13 138.377 371.377 134.783 372.55 131.19C373.797 127.597 374.86 124.187 375.74 120.96H385.2ZM415.23 120.96H436.79V128.55H415.23V152.31C415.23 154.877 415.413 156.967 415.78 158.58C416.147 160.193 416.733 161.513 417.54 162.54C418.42 163.493 419.52 164.153 420.84 164.52C422.16 164.887 423.773 165.07 425.68 165.07C428.32 165.07 430.447 164.85 432.06 164.41C433.673 163.97 435.213 163.383 436.68 162.65L438 170.35C436.973 170.79 435.323 171.377 433.05 172.11C430.85 172.843 428.1 173.21 424.8 173.21C420.987 173.21 417.87 172.77 415.45 171.89C413.03 171.01 411.123 169.69 409.73 167.93C408.41 166.17 407.493 164.007 406.98 161.44C406.467 158.8 406.21 155.757 406.21 152.31V128.55H395.43V120.96H406.21V106.66L415.23 105.12V120.96ZM494.1 146.48C494.1 150.513 493.513 154.18 492.34 157.48C491.24 160.707 489.663 163.493 487.61 165.84C485.557 168.187 483.1 170.02 480.24 171.34C477.38 172.587 474.263 173.21 470.89 173.21C467.59 173.21 464.51 172.587 461.65 171.34C458.863 170.02 456.443 168.187 454.39 165.84C452.337 163.493 450.723 160.707 449.55 157.48C448.45 154.18 447.9 150.513 447.9 146.48C447.9 142.447 448.45 138.78 449.55 135.48C450.723 132.18 452.337 129.393 454.39 127.12C456.443 124.773 458.863 122.977 461.65 121.73C464.51 120.41 467.59 119.75 470.89 119.75C474.263 119.75 477.38 120.41 480.24 121.73C483.1 122.977 485.557 124.773 487.61 127.12C489.663 129.393 491.24 132.18 492.34 135.48C493.513 138.78 494.1 142.447 494.1 146.48ZM484.75 146.48C484.75 140.687 483.503 136.14 481.01 132.84C478.517 129.467 475.143 127.78 470.89 127.78C466.71 127.78 463.373 129.467 460.88 132.84C458.46 136.14 457.25 140.687 457.25 146.48C457.25 152.2 458.46 156.747 460.88 160.12C463.373 163.42 466.71 165.07 470.89 165.07C475.143 165.07 478.517 163.42 481.01 160.12C483.503 156.747 484.75 152.2 484.75 146.48ZM549.1 146.48C549.1 150.513 548.513 154.18 547.34 157.48C546.24 160.707 544.663 163.493 542.61 165.84C540.557 168.187 538.1 170.02 535.24 171.34C532.38 172.587 529.263 173.21 525.89 173.21C522.59 173.21 519.51 172.587 516.65 171.34C513.863 170.02 511.443 168.187 509.39 165.84C507.337 163.493 505.723 160.707 504.55 157.48C503.45 154.18 502.9 150.513 502.9 146.48C502.9 142.447 503.45 138.78 504.55 135.48C505.723 132.18 507.337 129.393 509.39 127.12C511.443 124.773 513.863 122.977 516.65 121.73C519.51 120.41 522.59 119.75 525.89 119.75C529.263 119.75 532.38 120.41 535.24 121.73C538.1 122.977 540.557 124.773 542.61 127.12C544.663 129.393 546.24 132.18 547.34 135.48C548.513 138.78 549.1 142.447 549.1 146.48ZM539.75 146.48C539.75 140.687 538.503 136.14 536.01 132.84C533.517 129.467 530.143 127.78 525.89 127.78C521.71 127.78 518.373 129.467 515.88 132.84C513.46 136.14 512.25 140.687 512.25 146.48C512.25 152.2 513.46 156.747 515.88 160.12C518.373 163.42 521.71 165.07 525.89 165.07C530.143 165.07 533.517 163.42 536.01 160.12C538.503 156.747 539.75 152.2 539.75 146.48ZM590.68 173.21C587.453 173.21 584.777 172.77 582.65 171.89C580.523 171.01 578.837 169.69 577.59 167.93C576.343 166.17 575.463 164.007 574.95 161.44C574.437 158.8 574.18 155.757 574.18 152.31V104.02H559.44V96.32H583.2V152.31C583.2 154.877 583.347 156.967 583.64 158.58C584.007 160.193 584.52 161.513 585.18 162.54C585.913 163.493 586.793 164.153 587.82 164.52C588.847 164.887 590.057 165.07 591.45 165.07C593.577 165.07 595.557 164.813 597.39 164.3C599.223 163.787 600.653 163.237 601.68 162.65L603 170.35C602.56 170.57 601.937 170.863 601.13 171.23C600.323 171.523 599.37 171.817 598.27 172.11C597.17 172.403 595.96 172.66 594.64 172.88C593.393 173.1 592.073 173.21 590.68 173.21ZM647.11 159.24C647.11 157.407 646.34 155.903 644.8 154.73C643.333 153.557 641.463 152.53 639.19 151.65C636.99 150.77 634.57 149.927 631.93 149.12C629.29 148.24 626.833 147.177 624.56 145.93C622.36 144.683 620.49 143.143 618.95 141.31C617.483 139.477 616.75 137.093 616.75 134.16C616.75 130.053 618.4 126.643 621.7 123.93C625.073 121.143 630.317 119.75 637.43 119.75C640.217 119.75 643.077 119.97 646.01 120.41C649.017 120.777 651.583 121.29 653.71 121.95L652.06 130.09C651.473 129.797 650.667 129.503 649.64 129.21C648.613 128.843 647.44 128.55 646.12 128.33C644.8 128.037 643.37 127.817 641.83 127.67C640.363 127.523 638.933 127.45 637.54 127.45C629.62 127.45 625.66 129.613 625.66 133.94C625.66 135.48 626.393 136.8 627.86 137.9C629.4 138.927 631.307 139.88 633.58 140.76C635.853 141.64 638.31 142.557 640.95 143.51C643.59 144.39 646.047 145.49 648.32 146.81C650.593 148.13 652.463 149.743 653.93 151.65C655.47 153.483 656.24 155.83 656.24 158.69C656.24 163.31 654.443 166.903 650.85 169.47C647.257 171.963 641.573 173.21 633.8 173.21C630.28 173.21 627.053 172.917 624.12 172.33C621.187 171.743 618.4 170.863 615.76 169.69L617.52 161.44C620.087 162.613 622.763 163.603 625.55 164.41C628.41 165.143 631.453 165.51 634.68 165.51C642.967 165.51 647.11 163.42 647.11 159.24ZM678.9 139.77H703.1V148.35H678.9V139.77ZM756.56 131.74C755.533 130.787 754.03 129.907 752.05 129.1C750.07 128.22 748.017 127.78 745.89 127.78C743.47 127.78 741.38 128.257 739.62 129.21C737.933 130.163 736.54 131.483 735.44 133.17C734.34 134.783 733.533 136.763 733.02 139.11C732.507 141.383 732.25 143.84 732.25 146.48C732.25 152.42 733.643 157.003 736.43 160.23C739.217 163.457 742.847 165.07 747.32 165.07C749.593 165.07 751.5 164.96 753.04 164.74C754.653 164.52 755.827 164.3 756.56 164.08V131.74ZM756.56 97.31L765.69 95.77V170.57C763.71 171.157 761.18 171.743 758.1 172.33C755.02 172.917 751.427 173.21 747.32 173.21C743.653 173.21 740.317 172.587 737.31 171.34C734.303 170.093 731.737 168.333 729.61 166.06C727.483 163.713 725.833 160.89 724.66 157.59C723.487 154.29 722.9 150.587 722.9 146.48C722.9 142.52 723.377 138.927 724.33 135.7C725.357 132.4 726.823 129.577 728.73 127.23C730.637 124.883 732.91 123.05 735.55 121.73C738.263 120.41 741.343 119.75 744.79 119.75C747.503 119.75 749.887 120.08 751.94 120.74C753.993 121.4 755.533 122.097 756.56 122.83V97.31ZM812.11 159.24C812.11 157.407 811.34 155.903 809.8 154.73C808.333 153.557 806.463 152.53 804.19 151.65C801.99 150.77 799.57 149.927 796.93 149.12C794.29 148.24 791.833 147.177 789.56 145.93C787.36 144.683 785.49 143.143 783.95 141.31C782.483 139.477 781.75 137.093 781.75 134.16C781.75 130.053 783.4 126.643 786.7 123.93C790.073 121.143 795.317 119.75 802.43 119.75C805.217 119.75 808.077 119.97 811.01 120.41C814.017 120.777 816.583 121.29 818.71 121.95L817.06 130.09C816.473 129.797 815.667 129.503 814.64 129.21C813.613 128.843 812.44 128.55 811.12 128.33C809.8 128.037 808.37 127.817 806.83 127.67C805.363 127.523 803.933 127.45 802.54 127.45C794.62 127.45 790.66 129.613 790.66 133.94C790.66 135.48 791.393 136.8 792.86 137.9C794.4 138.927 796.307 139.88 798.58 140.76C800.853 141.64 803.31 142.557 805.95 143.51C808.59 144.39 811.047 145.49 813.32 146.81C815.593 148.13 817.463 149.743 818.93 151.65C820.47 153.483 821.24 155.83 821.24 158.69C821.24 163.31 819.443 166.903 815.85 169.47C812.257 171.963 806.573 173.21 798.8 173.21C795.28 173.21 792.053 172.917 789.12 172.33C786.187 171.743 783.4 170.863 780.76 169.69L782.52 161.44C785.087 162.613 787.763 163.603 790.55 164.41C793.41 165.143 796.453 165.51 799.68 165.51C807.967 165.51 812.11 163.42 812.11 159.24Z" fill="white"/>
</svg>
